<svg xmlns="http://www.w3.org/2000/svg" xmlns:xlink="http://www.w3.org/1999/xlink"  viewBox="0 0 70 70"><defs><path id="dea5a" d="M931.99 1075.12v-17.5c0-4.37-4.37-8.74-8.75-8.74h-4.37v4.37c0 6.75-6.37 13.12-13.12 13.12h-20.06l-6.18 6.19v2.56c0 4.37 4.37 8.75 8.74 8.75h21.87l13.12 13.12v-13.12c4.38 0 8.75-4.38 8.75-8.75zm-17.5-21.87v-17.5c0-4.37-4.37-8.74-8.74-8.74h-35c-4.37 0-8.74 4.37-8.74 8.75v17.5c0 4.37 4.37 8.74 8.75 8.74v13.12l13.12-13.12h21.87c4.37 0 8.74-4.37 8.74-8.75z"/></defs><g><g transform="translate(-862 -1027)"><use fill="#f9f9f9" xlink:href="#dea5a"/></g></g></svg>