<svg xmlns="http://www.w3.org/2000/svg" xmlns:xlink="http://www.w3.org/1999/xlink"  viewBox="0 0 47 69"><defs><path id="jv2oa" d="M599.6 1096.99h-34.2a6.45 6.45 0 0 1-6.41-6.47v-56.04a6.45 6.45 0 0 1 6.41-6.47h34.2c3.54 0 6.41 2.9 6.41 6.47v56.04a6.44 6.44 0 0 1-6.41 6.47zm2.14-62.51c0-1.19-.96-2.16-2.14-2.16h-34.2c-1.18 0-2.14.97-2.14 2.16v56.04c0 1.19.96 2.16 2.14 2.16h34.2c1.18 0 2.14-.97 2.14-2.16zm-34.2 2.15h29.92v47.43h-29.92zm14.96 49.58c1.18 0 2.14.97 2.14 2.16 0 1.18-.96 2.15-2.14 2.15a2.15 2.15 0 0 1-2.14-2.15c0-1.2.96-2.16 2.14-2.16z"/></defs><g><g transform="translate(-559 -1028)"><use fill="#fff" xlink:href="#jv2oa"/></g></g></svg>