<svg xmlns="http://www.w3.org/2000/svg" xmlns:xlink="http://www.w3.org/1999/xlink" width="90" height="90" viewBox="0 0 90 90"><defs><path id="85b7a" d="M599.99 3410c0 11.35-4.24 21.7-11.18 29.62a44.85 44.85 0 0 1-67.3.34A44.77 44.77 0 0 1 510 3410a44.98 44.98 0 1 1 89.98 0zm-5.63 0a39.4 39.4 0 0 0-39.36-39.36 39.4 39.4 0 0 0-39.36 39.36c0 8.93 3.02 17.14 8.05 23.75 2.83-2.47 8.69-4.27 14.52-6.7 6.78-2.83 8.38-3.81 8.38-3.81l.07-6.51s-2.54-1.96-3.33-8.09c-1.6.47-3.26-2.36-3.34-3.85-.1-1.44.2-5.43 2.15-5.03-.4-3-.68-5.7-.54-7.13.5-5.24 5.66-10.75 13.56-10.75 7.93 0 13.08 5.51 13.58 10.75.14 1.43-.15 4.13-.54 7.13 1.94-.4 2.24 3.6 2.16 5.03-.1 1.49-1.76 4.32-3.35 3.85-.8 6.13-3.33 8.09-3.33 8.09l.07 6.5s1.6 1 8.38 3.81c5.7 2.38 11.4 4.17 14.3 6.55a39.1 39.1 0 0 0 7.93-23.59z"/></defs><g><g transform="translate(-510 -3365)"><use fill="#fff" xlink:href="#85b7a"/></g></g></svg>